<svg width="20" height="21" viewBox="0 0 20 21" fill="none" xmlns="http://www.w3.org/2000/svg">
<path d="M7.50039 18.8333C7.96062 18.8333 8.33372 18.4602 8.33372 18C8.33372 17.5397 7.96062 17.1666 7.50039 17.1666C7.04015 17.1666 6.66705 17.5397 6.66705 18C6.66705 18.4602 7.04015 18.8333 7.50039 18.8333Z" stroke="#282828" stroke-width="1.43015" stroke-linecap="round" stroke-linejoin="round"/>
<path d="M16.6669 18.8333C17.1271 18.8333 17.5002 18.4602 17.5002 18C17.5002 17.5397 17.1271 17.1666 16.6669 17.1666C16.2067 17.1666 15.8336 17.5397 15.8336 18C15.8336 18.4602 16.2067 18.8333 16.6669 18.8333Z" fill="#282828" stroke="#282828" stroke-width="1.43015" stroke-linecap="round" stroke-linejoin="round"/>
<path d="M0.833679 1.33331H4.16701L6.40035 12.4916C6.47655 12.8753 6.68527 13.2199 6.98997 13.4652C7.29466 13.7105 7.67593 13.8408 8.06701 13.8333H16.167C16.5581 13.8408 16.9394 13.7105 17.2441 13.4652C17.5488 13.2199 17.7575 12.8753 17.8337 12.4916L19.167 5.49998H5.00035" stroke="#282828" stroke-width="1.43015" stroke-linecap="round" stroke-linejoin="round"/>
</svg>
