<svg width="20" height="21" viewBox="0 0 23 23" fill="none" xmlns="http://www.w3.org/2000/svg">
<g clip-path="url(#clip0_17_347)">
<path d="M15.8125 2.875C14.145 2.875 12.5445 3.65125 11.5 4.87792C10.4554 3.65125 8.85496 2.875 7.18746 2.875C4.23579 2.875 1.91663 5.19417 1.91663 8.14583C1.91663 11.7683 5.17496 14.72 10.1104 19.205L11.5 20.4604L12.8895 19.1954C17.825 14.72 21.0833 11.7683 21.0833 8.14583C21.0833 5.19417 18.7641 2.875 15.8125 2.875ZM11.5958 17.7771L11.5 17.8729L11.4041 17.7771C6.84246 13.6467 3.83329 10.9154 3.83329 8.14583C3.83329 6.22917 5.27079 4.79167 7.18746 4.79167C8.66329 4.79167 10.1008 5.74042 10.6087 7.05333H12.4008C12.8991 5.74042 14.3366 4.79167 15.8125 4.79167C17.7291 4.79167 19.1666 6.22917 19.1666 8.14583C19.1666 10.9154 16.1575 13.6467 11.5958 17.7771Z" fill="#2A5CF6"/>
</g>
<defs>
<clipPath id="clip0_17_347">
<rect width="26" height="26" fill="white"/>
</clipPath>
</defs>
</svg>
