<svg width="20" height="21" viewBox="0 0 20 21" fill="none" xmlns="http://www.w3.org/2000/svg">
<path d="M15.8796 3.34757C16.4358 3.57803 16.9412 3.91583 17.3668 4.34166C17.7926 4.76729 18.1304 5.27265 18.3609 5.82887C18.5914 6.38508 18.71 6.98126 18.71 7.58333C18.71 8.1854 18.5914 8.78158 18.3609 9.33779C18.1304 9.89401 17.7926 10.3994 17.3668 10.825L16.4835 11.7083L10.0001 18.1917L3.51679 11.7083L2.63345 10.825C1.77371 9.96525 1.29071 8.79919 1.29071 7.58333C1.29071 6.36747 1.77371 5.20141 2.63345 4.34166C3.4932 3.48192 4.65926 2.99892 5.87512 2.99892C7.09098 2.99892 8.25704 3.48192 9.11679 4.34166L10.0001 5.225L10.8835 4.34166C11.3091 3.91583 11.8144 3.57803 12.3707 3.34757C12.9269 3.1171 13.523 2.99847 14.1251 2.99847C14.7272 2.99847 15.3234 3.1171 15.8796 3.34757Z" stroke="#282828" stroke-width="1.43" stroke-linecap="round" stroke-linejoin="round"/>
</svg>
