<svg width="13" height="13" viewBox="0 0 13 13" fill="none" xmlns="http://www.w3.org/2000/svg">
<path d="M10.7561 2.23752C9.57073 1.05627 7.99024 0.400024 6.32195 0.400024C2.85366 0.400024 0.0439018 3.20002 0.0439018 6.65627C0.0439018 7.75002 0.351219 8.84377 0.878049 9.76252L0 13L3.33659 12.125C4.25854 12.6063 5.26829 12.8688 6.32195 12.8688C9.79024 12.8688 12.6 10.0688 12.6 6.61252C12.5561 4.99377 11.9415 3.41877 10.7561 2.23752ZM9.35122 8.88752C9.21951 9.23752 8.60488 9.58752 8.29756 9.63127C8.03415 9.67502 7.68293 9.67502 7.33171 9.58753C7.1122 9.50002 6.80488 9.41253 6.45366 9.23752C4.87317 8.58127 3.86342 7.00627 3.77561 6.87502C3.68781 6.78752 3.11707 6.04377 3.11707 5.25627C3.11707 4.46877 3.51219 4.11877 3.6439 3.94377C3.77561 3.76877 3.95122 3.76877 4.08293 3.76877C4.17073 3.76877 4.30244 3.76877 4.39024 3.76877C4.47805 3.76877 4.60976 3.72502 4.74146 4.03127C4.87317 4.33752 5.18049 5.12502 5.22439 5.16877C5.26829 5.25627 5.26829 5.34377 5.22439 5.43127C5.18049 5.51877 5.13658 5.60627 5.04878 5.69377C4.96097 5.78127 4.87317 5.91252 4.82927 5.95627C4.74146 6.04377 4.65366 6.13127 4.74146 6.26252C4.82927 6.43752 5.13659 6.91877 5.61951 7.35627C6.23415 7.88127 6.71707 8.05628 6.89268 8.14378C7.06829 8.23128 7.1561 8.18752 7.2439 8.10002C7.33171 8.01252 7.63903 7.66253 7.72683 7.48753C7.81464 7.31253 7.94634 7.35628 8.07805 7.40002C8.20975 7.44377 9 7.83753 9.13171 7.92503C9.30732 8.01253 9.39512 8.05627 9.43902 8.10002C9.48293 8.23127 9.48293 8.53752 9.35122 8.88752Z" fill="#282828"/>
</svg>
